# xmcd CD database file
#
# Track frame offsets:
#	150
#	19608
#	35001
#	60687
#	86452
#
# Disc length: 1340 seconds
#
# Revision: 0
# Processed by: cddbd v1.5.1PL2 Copyright (c) Steve Scherf et al.
# Submitted via: CDex 1.51
#
DISCID=35053a05
DTITLE=one tone - 夢のつづき
DYEAR=2003
DGENRE=Acoustic
TTITLE0=真昼の月
TTITLE1=碧の鼓動
TTITLE2=満ちてゆく時
TTITLE3=夢のつづき
TTITLE4=うたかた
EXTD=YEAR: 2003
EXTT0=
EXTT1=
EXTT2=
EXTT3=
EXTT4=
PLAYORDER=
